<svg width="24" height="26" viewBox="0 0 24 26" fill="none" xmlns="http://www.w3.org/2000/svg">
<path d="M16.288 10.3741C15.726 9.38675 14.8716 8.62059 13.8559 8.19312C12.8402 7.76565 11.7192 7.70048 10.6649 8.00759C9.61058 8.3147 8.68114 8.97714 8.01914 9.89332C7.35713 10.8095 6.99912 11.9288 7 13.0796C6.99912 14.2304 7.35713 15.3497 8.01914 16.2658C8.68114 17.182 9.61058 17.8445 10.6649 18.1516C11.7192 18.4587 12.8402 18.3935 13.8559 17.966C14.8716 17.5386 15.726 16.7724 16.288 15.7851L14.573 14.7037C14.3031 15.1767 13.9201 15.567 13.4621 15.8356C13.0041 16.1043 12.4871 16.242 11.9627 16.235C11.4384 16.228 10.9249 16.0766 10.4735 15.7957C10.0222 15.5149 9.64868 15.1145 9.39029 14.6345C9.13189 14.1545 8.99763 13.6116 9.00089 13.06C9.00414 12.5084 9.1448 11.9673 9.40885 11.4907C9.67289 11.0141 10.0511 10.6186 10.5057 10.3437C10.9604 10.0688 11.4756 9.92402 12 9.92387C13.093 9.92387 14.05 10.5382 14.573 11.4565L16.288 10.3741ZM22 13.0796C22 7.27307 17.52 2.56055 12 2.56055C6.48 2.56055 2 7.27307 2 13.0796C2 18.8861 6.48 23.5986 12 23.5986C17.52 23.5986 22 18.8861 22 13.0796ZM4 13.0796C4 8.43017 7.58 4.66435 12 4.66435C16.42 4.66435 20 8.43017 20 13.0796C20 17.729 16.42 21.4948 12 21.4948C7.58 21.4948 4 17.729 4 13.0796Z" fill="#757575"/>
</svg>
