<svg width="24" height="26" viewBox="0 0 24 26" fill="none" xmlns="http://www.w3.org/2000/svg">
<path d="M16 12.6228C16 11.4614 15.6094 10.4697 14.8281 9.64792C14.0469 8.82613 13.1042 8.41523 12 8.41523C10.8958 8.41523 9.95312 8.82613 9.17188 9.64792C8.39062 10.4697 8 11.4614 8 12.6228C8 13.7843 8.39062 14.776 9.17188 15.5978C9.95312 16.4195 10.8958 16.8305 12 16.8305C13.1042 16.8305 14.0469 16.4195 14.8281 15.5978C15.6094 14.776 16 13.7843 16 12.6228ZM18.1562 12.6228C18.1562 14.4198 17.5573 15.9484 16.3594 17.2085C15.1615 18.4686 13.7083 19.0986 12 19.0986C10.2917 19.0986 8.83854 18.4686 7.64062 17.2085C6.44271 15.9484 5.84375 14.4198 5.84375 12.6228C5.84375 10.8258 6.44271 9.29729 7.64062 8.0372C8.83854 6.77711 10.2917 6.14706 12 6.14706C13.7083 6.14706 15.1615 6.77711 16.3594 8.0372C17.5573 9.29729 18.1562 10.8258 18.1562 12.6228ZM19.8438 5.88408C19.8438 6.30046 19.7031 6.65657 19.4219 6.95242C19.1406 7.24827 18.8021 7.39619 18.4062 7.39619C18.0104 7.39619 17.6719 7.24827 17.3906 6.95242C17.1094 6.65657 16.9688 6.30046 16.9688 5.88408C16.9688 5.4677 17.1094 5.11159 17.3906 4.81574C17.6719 4.5199 18.0104 4.37197 18.4062 4.37197C18.8021 4.37197 19.1406 4.5199 19.4219 4.81574C19.7031 5.11159 19.8438 5.4677 19.8438 5.88408ZM12 2.26817C11.9271 2.26817 11.5286 2.26543 10.8047 2.25995C10.0807 2.25447 9.53125 2.25447 9.15625 2.25995C8.78125 2.26543 8.27865 2.28186 7.64844 2.30926C7.01823 2.33665 6.48177 2.39144 6.03906 2.47362C5.59635 2.5558 5.22396 2.65715 4.92188 2.77768C4.40104 2.99683 3.94271 3.31459 3.54688 3.73097C3.15104 4.14735 2.84896 4.62947 2.64062 5.17734C2.52604 5.4951 2.42969 5.88682 2.35156 6.35251C2.27344 6.81819 2.22135 7.3825 2.19531 8.04541C2.16927 8.70833 2.15365 9.23702 2.14844 9.63149C2.14323 10.026 2.14323 10.604 2.14844 11.3655C2.15365 12.127 2.15625 12.5461 2.15625 12.6228C2.15625 12.6995 2.15365 13.1187 2.14844 13.8802C2.14323 14.6417 2.14323 15.2197 2.14844 15.6142C2.15365 16.0086 2.16927 16.5373 2.19531 17.2003C2.22135 17.8632 2.27344 18.4275 2.35156 18.8932C2.42969 19.3589 2.52604 19.7506 2.64062 20.0683C2.84896 20.6162 3.15104 21.0983 3.54688 21.5147C3.94271 21.9311 4.40104 22.2488 4.92188 22.468C5.22396 22.5885 5.59635 22.6899 6.03906 22.7721C6.48177 22.8542 7.01823 22.909 7.64844 22.9364C8.27865 22.9638 8.78125 22.9802 9.15625 22.9857C9.53125 22.9912 10.0807 22.9912 10.8047 22.9857C11.5286 22.9802 11.9271 22.9775 12 22.9775C12.0729 22.9775 12.4714 22.9802 13.1953 22.9857C13.9193 22.9912 14.4688 22.9912 14.8438 22.9857C15.2188 22.9802 15.7214 22.9638 16.3516 22.9364C16.9818 22.909 17.5182 22.8542 17.9609 22.7721C18.4036 22.6899 18.776 22.5885 19.0781 22.468C19.599 22.2488 20.0573 21.9311 20.4531 21.5147C20.849 21.0983 21.151 20.6162 21.3594 20.0683C21.474 19.7506 21.5703 19.3589 21.6484 18.8932C21.7266 18.4275 21.7786 17.8632 21.8047 17.2003C21.8307 16.5373 21.8464 16.0086 21.8516 15.6142C21.8568 15.2197 21.8568 14.6417 21.8516 13.8802C21.8464 13.1187 21.8438 12.6995 21.8438 12.6228C21.8438 12.5461 21.8464 12.127 21.8516 11.3655C21.8568 10.604 21.8568 10.026 21.8516 9.63149C21.8464 9.23702 21.8307 8.70833 21.8047 8.04541C21.7786 7.3825 21.7266 6.81819 21.6484 6.35251C21.5703 5.88682 21.474 5.4951 21.3594 5.17734C21.151 4.62947 20.849 4.14735 20.4531 3.73097C20.0573 3.31459 19.599 2.99683 19.0781 2.77768C18.776 2.65715 18.4036 2.5558 17.9609 2.47362C17.5182 2.39144 16.9818 2.33665 16.3516 2.30926C15.7214 2.28186 15.2188 2.26543 14.8438 2.25995C14.4688 2.25447 13.9193 2.25447 13.1953 2.25995C12.4714 2.26543 12.0729 2.26817 12 2.26817ZM24 12.6228C24 15.1321 23.974 16.8688 23.9219 17.833C23.8177 20.1122 23.1719 21.8763 21.9844 23.1254C20.7969 24.3746 19.1198 25.0539 16.9531 25.1635C16.0365 25.2183 14.3854 25.2457 12 25.2457C9.61458 25.2457 7.96354 25.2183 7.04688 25.1635C4.88021 25.0539 3.20312 24.3746 2.01562 23.1254C0.828125 21.8763 0.182292 20.1122 0.078125 17.833C0.0260417 16.8688 0 15.1321 0 12.6228C0 10.1136 0.0260417 8.37687 0.078125 7.41263C0.182292 5.13351 0.828125 3.36938 2.01562 2.12024C3.20312 0.871107 4.88021 0.191753 7.04688 0.0821799C7.96354 0.0273933 9.61458 0 12 0C14.3854 0 16.0365 0.0273933 16.9531 0.0821799C19.1198 0.191753 20.7969 0.871107 21.9844 2.12024C23.1719 3.36938 23.8177 5.13351 23.9219 7.41263C23.974 8.37687 24 10.1136 24 12.6228Z" fill="#757575"/>
</svg>
