<svg width="24" height="26" viewBox="0 0 24 26" fill="none" xmlns="http://www.w3.org/2000/svg">
<path fill-rule="evenodd" clip-rule="evenodd" d="M12.288 22.6097L12.29 22.6087L12.295 22.605L12.31 22.5929L12.369 22.5482C12.4197 22.5093 12.4913 22.4525 12.584 22.3778C12.768 22.2295 13.029 22.0112 13.3405 21.7309C14.1582 20.9957 14.9228 20.1975 15.628 19.3431C17.282 17.3308 19 14.4591 19 11.175C19 9.21322 18.263 7.33032 16.951 5.9418C16.3026 5.25455 15.5313 4.70899 14.6816 4.33656C13.8319 3.96413 12.9205 3.77216 12 3.77173C11.0795 3.7721 10.1682 3.96397 9.31849 4.33632C8.46879 4.70866 7.69749 5.25411 7.049 5.94128C5.73585 7.33306 4.99928 9.21466 5 11.1755C5 14.4591 6.718 17.3308 8.372 19.3431C9.07718 20.1975 9.84179 20.9957 10.6595 21.7309C10.9715 22.0112 11.232 22.2295 11.416 22.3778C11.5063 22.4509 11.5974 22.5228 11.6895 22.5934L11.7055 22.605L11.71 22.6087L11.712 22.6097C11.8845 22.7375 12.1155 22.7375 12.288 22.6097ZM14.5 11.1351C14.5 11.8325 14.2366 12.5014 13.7678 12.9946C13.2989 13.4877 12.663 13.7648 12 13.7648C11.337 13.7648 10.7011 13.4877 10.2322 12.9946C9.76339 12.5014 9.5 11.8325 9.5 11.1351C9.5 10.4376 9.76339 9.76871 10.2322 9.27553C10.7011 8.78236 11.337 8.50529 12 8.50529C12.663 8.50529 13.2989 8.78236 13.7678 9.27553C14.2366 9.76871 14.5 10.4376 14.5 11.1351Z" fill="#757575"/>
</svg>
