<svg width="24" height="26" viewBox="0 0 24 26" fill="none" xmlns="http://www.w3.org/2000/svg">
<path d="M19.23 16.5089L16.69 16.2038C16.3914 16.1669 16.0886 16.2017 15.8046 16.3055C15.5206 16.4094 15.2626 16.5796 15.05 16.8034L13.21 18.7389C10.3714 17.2199 8.0641 14.7928 6.62004 11.8069L8.47004 9.86083C8.90004 9.40852 9.11004 8.77738 9.04004 8.13571L8.75004 5.48492C8.69356 4.97168 8.45951 4.49826 8.0925 4.15488C7.7255 3.81151 7.25121 3.62221 6.76004 3.62305H5.03004C3.90004 3.62305 2.96004 4.61184 3.03004 5.80049C3.56004 14.7837 10.39 21.9577 18.92 22.5152C20.05 22.5889 20.99 21.6001 20.99 20.4114V18.5916C21 17.5292 20.24 16.6351 19.23 16.5089Z" fill="#757575"/>
</svg>
